<svg xmlns="http://www.w3.org/2000/svg" xmlns:xlink="http://www.w3.org/1999/xlink" viewBox="0 0 300.07 59.07"><defs><linearGradient id="a" y1="37.6" x2="44.33" y2="37.6" gradientTransform="matrix(1, 0, 0, -1, 0, 62.01)" gradientUnits="userSpaceOnUse"><stop offset="0" stop-color="#05f"/><stop offset="1" stop-color="#00d466"/></linearGradient></defs><path d="M62.58,16.88H59.86a1.37,1.37,0,0,1-1.55-1.16,1.27,1.27,0,0,1,0-.39v-.51a1.42,1.42,0,0,1,1.2-1.61,1.36,1.36,0,0,1,.35,0h2.78V5.57A1.47,1.47,0,0,1,63.94,4a1.71,1.71,0,0,1,.32,0h1.17A1.42,1.42,0,0,1,67,5.22a1.38,1.38,0,0,1,0,.35V13.2h6.6a1.46,1.46,0,0,1,1.61,1.29,1.82,1.82,0,0,1,0,.33v.51a1.41,1.41,0,0,1-1.25,1.56,1.45,1.45,0,0,1-.36,0H67v16.3c0,7.51,4.59,8.41,7.11,8.54,1.3.13,1.75.52,1.75,1.62v.84c0,1-.52,1.55-1.81,1.55-7.12,0-11.45-4.33-11.45-12Z" transform="translate(0 0.01)" style="fill:#666"/><path d="M95.89,12.16a17,17,0,1,1-.33,0ZM96,42.3c6.92,0,12.61-5.69,12.61-13.25a12.65,12.65,0,1,0-25.29-.71c0,.24,0,.47,0,.71C83.28,36.57,89,42.3,96,42.3Z" transform="translate(0 0.01)" style="fill:#666"/><path d="M120.21,1.62A1.42,1.42,0,0,1,121.41,0a1.36,1.36,0,0,1,.35,0H123a1.47,1.47,0,0,1,1.62,1.3,1.71,1.71,0,0,1,0,.32V25.36h5.23l9-11.45a2.29,2.29,0,0,1,1.94-1h1.61c1.3,0,1.75.9.91,1.94L133.5,27.1v.13l11.22,16.34c.71,1.1.26,1.94-1.1,1.94h-1.68a1.93,1.93,0,0,1-1.88-1.1L129.91,29.24h-5.3V43.86a1.47,1.47,0,0,1-1.31,1.61h-1.54a1.41,1.41,0,0,1-1.56-1.25,1.45,1.45,0,0,1,0-.36Z" transform="translate(0 0.01)" style="fill:#666"/><path d="M164.32,12.16c8.67,0,13.58,6.28,13.58,15.53a1.61,1.61,0,0,1-1.61,1.61H152.8c.2,8.28,5.89,13,12.62,13a14,14,0,0,0,8.54-3,1.33,1.33,0,0,1,1.89.05,1.16,1.16,0,0,1,.24.34l.52.77a1.52,1.52,0,0,1-.41,2.11l0,0a18.59,18.59,0,0,1-10.87,3.62c-9.7,0-17-7-17-17C148.28,18.57,155.5,12.16,164.32,12.16ZM173.44,26c-.26-6.86-4.4-10.22-9.25-10.22C158.76,15.79,154,19.41,153,26Z" transform="translate(0 0.01)" style="fill:#666"/><path d="M185,14.57a1.47,1.47,0,0,1,1.3-1.62h1.48a1.46,1.46,0,0,1,1.56,1.34,2.62,2.62,0,0,1,0,.28v3.75a10.74,10.74,0,0,1-.26,2.33h.13a14.36,14.36,0,0,1,13.13-8.48c8.09,0,10.93,4.6,10.93,12.62V43.86a1.46,1.46,0,0,1-1.29,1.61h-1.55a1.41,1.41,0,0,1-1.56-1.25,1.45,1.45,0,0,1,0-.36V25.94c0-5.11-.84-9.64-7.12-9.64-6.92,0-12.35,5.69-12.35,13.26v14.3a1.41,1.41,0,0,1-1.21,1.6,1.36,1.36,0,0,1-.35,0h-1.22A1.46,1.46,0,0,1,185,44.19a1.82,1.82,0,0,1,0-.33Z" transform="translate(0 0.01)" style="fill:#666"/><path d="M226.08,53.43a17.53,17.53,0,0,0,7.57,1.68c6,0,11.19-3,11.19-10.22V41.57a14,14,0,0,1,.2-2.33h-.13a10.91,10.91,0,0,1-10.35,6.08c-8.73,0-14.49-6.86-14.49-16.88,0-9.57,5.3-16.24,14.36-16.24,8.41,0,10.61,5.95,10.61,5.95h.13a4.53,4.53,0,0,1-.13-1.1V14.36a1.36,1.36,0,0,1,1.28-1.43,1.22,1.22,0,0,1,.27,0h1a1.47,1.47,0,0,1,1.65,1.27,2.16,2.16,0,0,1,0,.36V44.7c0,10.35-7.7,14.36-15.46,14.36a23.28,23.28,0,0,1-9.38-1.94,1.36,1.36,0,0,1-1-1.67,1.44,1.44,0,0,1,.18-.4l.39-.91a1.42,1.42,0,0,1,1.83-.82Zm18.83-24.71c0-9.64-4.66-12.61-10.09-12.61-6.6,0-10.22,4.66-10.22,12.16,0,8.15,4.2,13.06,10.61,13.06C240.38,41.33,244.91,38.17,244.91,28.72Z" transform="translate(0 0.01)" style="fill:#666"/><path d="M258.16,14.57a1.41,1.41,0,0,1,1.2-1.61,1.45,1.45,0,0,1,.36,0H261a1.46,1.46,0,0,1,1.61,1.29,1.82,1.82,0,0,1,0,.33v17.9c0,5.11.78,9.64,7.05,9.64,7.44,0,12-6.53,12-13.58v-14a1.47,1.47,0,0,1,1.3-1.62h1.59a1.43,1.43,0,0,1,1.55,1.28,1.29,1.29,0,0,1,0,.34v29.3a1.41,1.41,0,0,1-1.2,1.59,1.29,1.29,0,0,1-.34,0h-1.16a1.42,1.42,0,0,1-1.57-1.26,1.38,1.38,0,0,1,0-.35V40.11a14,14,0,0,1,.2-2.33h-.13A14.11,14.11,0,0,1,269,46.25c-7.7,0-10.87-4.14-10.87-12.61Z" transform="translate(0 0.01)" style="fill:#666"/><path d="M295.29,4V1.62A1.42,1.42,0,0,1,296.49,0a1.36,1.36,0,0,1,.35,0h1.66a1.42,1.42,0,0,1,1.56,1.27,1.38,1.38,0,0,1,0,.35V4a1.37,1.37,0,0,1-1.16,1.55,1.28,1.28,0,0,1-.39,0h-1.62a1.36,1.36,0,0,1-1.58-1.12A1.24,1.24,0,0,1,295.29,4Zm.13,10.62a1.47,1.47,0,0,1,1.3-1.62h1.54a1.42,1.42,0,0,1,1.57,1.26,1.45,1.45,0,0,1,0,.36v29.3a1.41,1.41,0,0,1-1.21,1.6,1.36,1.36,0,0,1-.35,0H297a1.46,1.46,0,0,1-1.62-1.28,1.82,1.82,0,0,1,0-.33Z" transform="translate(0 0.01)" style="fill:#666"/><path d="M62.58,16.88H59.86a1.37,1.37,0,0,1-1.55-1.16,1.27,1.27,0,0,1,0-.39v-.51a1.42,1.42,0,0,1,1.2-1.61,1.36,1.36,0,0,1,.35,0h2.78V5.57A1.47,1.47,0,0,1,63.94,4a1.71,1.71,0,0,1,.32,0h1.17A1.42,1.42,0,0,1,67,5.22a1.38,1.38,0,0,1,0,.35V13.2h6.6a1.46,1.46,0,0,1,1.61,1.29,1.82,1.82,0,0,1,0,.33v.51a1.41,1.41,0,0,1-1.25,1.56,1.45,1.45,0,0,1-.36,0H67v16.3c0,7.51,4.59,8.41,7.11,8.54,1.3.13,1.75.52,1.75,1.62v.84c0,1-.52,1.55-1.81,1.55-7.12,0-11.45-4.33-11.45-12Z" transform="translate(0 0.01)" style="fill:#6e6f71"/><path d="M95.89,12.16a17,17,0,1,1-.33,0ZM96,42.3c6.92,0,12.61-5.69,12.61-13.25a12.65,12.65,0,1,0-25.29-.71c0,.24,0,.47,0,.71C83.28,36.57,89,42.3,96,42.3Z" transform="translate(0 0.01)" style="fill:#6e6f71"/><path d="M120.21,1.62A1.42,1.42,0,0,1,121.41,0a1.36,1.36,0,0,1,.35,0H123a1.47,1.47,0,0,1,1.62,1.3,1.71,1.71,0,0,1,0,.32V25.36h5.23l9-11.45a2.29,2.29,0,0,1,1.94-1h1.61c1.3,0,1.75.9.91,1.94L133.5,27.1v.13l11.22,16.34c.71,1.1.26,1.94-1.1,1.94h-1.68a1.93,1.93,0,0,1-1.88-1.1L129.91,29.24h-5.3V43.86a1.47,1.47,0,0,1-1.31,1.61h-1.54a1.41,1.41,0,0,1-1.56-1.25,1.45,1.45,0,0,1,0-.36Z" transform="translate(0 0.01)" style="fill:#6e6f71"/><path d="M164.32,12.16c8.67,0,13.58,6.28,13.58,15.53a1.61,1.61,0,0,1-1.61,1.61H152.8c.2,8.28,5.89,13,12.62,13a14,14,0,0,0,8.54-3,1.33,1.33,0,0,1,1.89.05,1.16,1.16,0,0,1,.24.34l.52.77a1.52,1.52,0,0,1-.41,2.11l0,0a18.59,18.59,0,0,1-10.87,3.62c-9.7,0-17-7-17-17C148.28,18.57,155.5,12.16,164.32,12.16ZM173.44,26c-.26-6.86-4.4-10.22-9.25-10.22C158.76,15.79,154,19.41,153,26Z" transform="translate(0 0.01)" style="fill:#6e6f71"/><path d="M185,14.57a1.47,1.47,0,0,1,1.3-1.62h1.48a1.46,1.46,0,0,1,1.56,1.34,2.62,2.62,0,0,1,0,.28v3.75a10.74,10.74,0,0,1-.26,2.33h.13a14.36,14.36,0,0,1,13.13-8.48c8.09,0,10.93,4.6,10.93,12.62V43.86a1.46,1.46,0,0,1-1.29,1.61h-1.55a1.41,1.41,0,0,1-1.56-1.25,1.45,1.45,0,0,1,0-.36V25.94c0-5.11-.84-9.64-7.12-9.64-6.92,0-12.35,5.69-12.35,13.26v14.3a1.41,1.41,0,0,1-1.21,1.6,1.36,1.36,0,0,1-.35,0h-1.22A1.46,1.46,0,0,1,185,44.19a1.82,1.82,0,0,1,0-.33Z" transform="translate(0 0.01)" style="fill:#6e6f71"/><path d="M226.08,53.43a17.53,17.53,0,0,0,7.57,1.68c6,0,11.19-3,11.19-10.22V41.57a14,14,0,0,1,.2-2.33h-.13a10.91,10.91,0,0,1-10.35,6.08c-8.73,0-14.49-6.86-14.49-16.88,0-9.57,5.3-16.24,14.36-16.24,8.41,0,10.61,5.95,10.61,5.95h.13a4.53,4.53,0,0,1-.13-1.1V14.36a1.36,1.36,0,0,1,1.28-1.43,1.22,1.22,0,0,1,.27,0h1a1.47,1.47,0,0,1,1.65,1.27,2.16,2.16,0,0,1,0,.36V44.7c0,10.35-7.7,14.36-15.46,14.36a23.28,23.28,0,0,1-9.38-1.94,1.36,1.36,0,0,1-1-1.67,1.44,1.44,0,0,1,.18-.4l.39-.91a1.42,1.42,0,0,1,1.83-.82Zm18.83-24.71c0-9.64-4.66-12.61-10.09-12.61-6.6,0-10.22,4.66-10.22,12.16,0,8.15,4.2,13.06,10.61,13.06C240.38,41.33,244.91,38.17,244.91,28.72Z" transform="translate(0 0.01)" style="fill:#6e6f71"/><path d="M258.16,14.57a1.41,1.41,0,0,1,1.2-1.61,1.45,1.45,0,0,1,.36,0H261a1.46,1.46,0,0,1,1.61,1.29,1.82,1.82,0,0,1,0,.33v17.9c0,5.11.78,9.64,7.05,9.64,7.44,0,12-6.53,12-13.58v-14a1.47,1.47,0,0,1,1.3-1.62h1.59a1.43,1.43,0,0,1,1.55,1.28,1.29,1.29,0,0,1,0,.34v29.3a1.41,1.41,0,0,1-1.2,1.59,1.29,1.29,0,0,1-.34,0h-1.16a1.42,1.42,0,0,1-1.57-1.26,1.38,1.38,0,0,1,0-.35V40.11a14,14,0,0,1,.2-2.33h-.13A14.11,14.11,0,0,1,269,46.25c-7.7,0-10.87-4.14-10.87-12.61Z" transform="translate(0 0.01)" style="fill:#6e6f71"/><path d="M295.29,4V1.62A1.42,1.42,0,0,1,296.49,0a1.36,1.36,0,0,1,.35,0h1.66a1.42,1.42,0,0,1,1.56,1.27,1.38,1.38,0,0,1,0,.35V4a1.37,1.37,0,0,1-1.16,1.55,1.28,1.28,0,0,1-.39,0h-1.62a1.36,1.36,0,0,1-1.58-1.12A1.24,1.24,0,0,1,295.29,4Zm.13,10.62a1.47,1.47,0,0,1,1.3-1.62h1.54a1.42,1.42,0,0,1,1.57,1.26,1.45,1.45,0,0,1,0,.36v29.3a1.41,1.41,0,0,1-1.21,1.6,1.36,1.36,0,0,1-.35,0H297a1.46,1.46,0,0,1-1.62-1.28,1.82,1.82,0,0,1,0-.33Z" transform="translate(0 0.01)" style="fill:#6e6f71"/><polygon points="4.82 3.24 0.12 7.95 16.46 24.29 0 40.76 4.82 45.58 25.99 24.41 4.82 3.24" style="fill:#05f"/><polygon points="23.16 3.24 18.46 7.95 34.81 24.29 18.34 40.76 23.16 45.58 44.33 24.41 23.16 3.24" style="fill:#05f"/><polygon points="4.82 3.24 0.12 7.95 16.46 24.29 0 40.76 4.82 45.58 25.99 24.41 4.82 3.24" style="fill:url(#a)"/><polygon points="23.16 3.24 18.46 7.95 34.81 24.29 18.34 40.76 23.16 45.58 44.33 24.41 23.16 3.24" style="fill:url(#a)"/></svg>